<svg width="258" height="70" viewBox="0 0 258 70" fill="none" xmlns="http://www.w3.org/2000/svg">
<path d="M24.3968 69.1142L17.2037 51.8913L10.0105 69.1142H0L12.31 42.3561L0.745923 17.3696H10.6804L17.2037 33.0389L23.7269 17.3696H33.6614L22.0973 42.3561L34.4026 69.1142H24.3968Z" fill="#32B7EB"/>
<path d="M58.7993 59.7259H46.6366L44.5461 69.1142H35.0439L47.7958 17.3696H57.583L70.3349 69.1142H60.8328L58.7993 59.7259ZM56.9464 51.0765L54.8702 41.4656C54.129 37.9178 53.3118 32.2289 52.794 28.7521H52.5707C52.1241 32.2289 51.3116 37.9178 50.5705 41.4656L48.4942 51.0765H56.9464Z" fill="#32B7EB"/>
<path d="M104.238 17.3696L91.9283 57.2864C88.7404 67.4894 84.8872 69.9241 76.2118 69.9241H74.2828V61.7958H76.5063C80.5115 61.7958 82.1411 60.318 83.8468 54.5533L70.8716 17.3696H80.5115L87.9279 40.5088L94.6745 17.3696H104.238Z" fill="#32B7EB"/>
<path d="M106.458 53.5916V32.8919C106.458 22.1726 112.316 16.3369 122.032 16.3369C131.962 16.3369 137.601 22.1726 138.043 32.7451H128.926C128.627 27.421 126.403 25.1331 121.956 25.1331C118.155 25.1331 115.875 27.5725 115.875 32.8919V53.5916C115.875 58.7642 118.174 61.2036 122.051 61.2036C126.569 61.2036 128.798 58.911 129.178 53.7385H138.295C137.924 64.2352 132.066 69.9998 122.061 69.9998C112.421 69.9998 106.487 64.2352 106.487 53.5916" fill="#32B7EB"/>
<path d="M175.629 53.9612C175.629 63.1979 169.476 69.1189 160.506 69.1189H144.861V17.3696H160.064C168.222 17.3696 173.781 23.0538 173.781 31.7836C173.781 36.2173 172.004 40.3098 169.03 42.5787C173.177 44.644 175.624 48.9355 175.624 53.947L175.629 53.9612ZM153.978 25.929V38.6425H158.943C162.649 38.6425 164.507 36.3546 164.507 32.1389C164.507 27.999 162.649 25.929 158.648 25.929H153.978ZM166.283 53.947C166.283 49.4376 163.613 47.145 159.019 47.145H153.983V60.5264H159.095C163.846 60.5264 166.288 58.3096 166.288 53.947" fill="#32B7EB"/>
<path d="M182.299 17.3696H191.198V34.2989C191.198 38.5856 190.751 46.4203 190.086 52.0381L190.305 52.1849C191.421 49.305 192.68 45.7571 194.106 42.6498L205.133 17.3696H214.255V69.1142H205.356V53.0091C205.356 48.1302 205.727 39.7035 206.306 34.2325L206.083 34.0099C204.748 37.5578 203.342 41.6977 201.807 45.2455L191.355 69.1236H182.328L182.299 17.3696Z" fill="#32B7EB"/>
<path d="M236.195 48.045L233.007 52.9997V69.1142H224.037V17.3696H233.007V38.5857L236.048 32.5226L244.723 17.3696H255.252L241.312 39.9167L257.475 69.1142H247.094L236.195 48.045Z" fill="#32B7EB"/>
<path d="M52.5614 4.77467C53.1374 4.77467 53.7005 4.94496 54.1794 5.26402C54.6583 5.58307 55.0316 6.03656 55.2521 6.56713C55.4725 7.0977 55.5302 7.68153 55.4178 8.24478C55.3054 8.80803 55.028 9.32541 54.6207 9.73149C54.2134 10.1376 53.6945 10.4141 53.1295 10.5262C52.5646 10.6382 51.979 10.5807 51.4468 10.3609C50.9146 10.1412 50.4598 9.76899 50.1398 9.29149C49.8198 8.81398 49.6489 8.25259 49.6489 7.67831C49.6489 6.90821 49.9558 6.16966 50.502 5.62512C51.0481 5.08058 51.7889 4.77467 52.5614 4.77467ZM52.5614 0C51.0389 4.62109e-06 49.5507 0.449856 48.2846 1.29272C47.0185 2.13559 46.0314 3.33366 45.4479 4.73559C44.8645 6.13751 44.7108 7.68039 45.0065 9.16932C45.3021 10.6582 46.0337 12.0264 47.1089 13.101C48.1841 14.1756 49.5546 14.9084 51.0472 15.2068C52.5399 15.5052 54.0879 15.3558 55.4954 14.7776C56.903 14.1993 58.1072 13.2181 58.9557 11.9579C59.8042 10.6977 60.2591 9.21507 60.2629 7.69726C60.2616 5.66123 59.4498 3.70895 58.0058 2.26926C56.5617 0.829568 54.6035 0.0202024 52.5614 0.0189475" fill="#32B7EB"/>
</svg>
