<svg width="195" height="69" viewBox="0 0 195 69" fill="none" xmlns="http://www.w3.org/2000/svg">
<g clip-path="url(#clip0_60_3192)">
<path d="M105.836 68.3575V68.992H100.588V68.3575H101.001C101.436 67.932 101.785 66.8863 101.828 65.5244L101.958 61.3628H105.183V68.3575H105.836ZM104.506 61.995H102.607L102.476 65.7003C102.433 66.9314 102.194 67.8037 101.844 68.3575H104.511L104.506 61.995Z" fill="#2EB6EA"/>
<path d="M106.774 66.4847V63.5875C106.774 62.0498 107.591 61.0801 108.964 61.0801C110.336 61.0801 111.153 62.0498 111.153 63.5875V66.4847C111.153 68.0225 110.336 68.9921 108.964 68.9921C107.591 68.9921 106.774 68.0225 106.774 66.4847ZM110.467 66.4847V63.5875C110.467 62.411 109.954 61.7337 108.964 61.7337C107.973 61.7337 107.461 62.411 107.461 63.5875V66.4847C107.461 67.6731 107.973 68.3386 108.964 68.3386C109.954 68.3386 110.467 67.6636 110.467 66.4847Z" fill="#2EB6EA"/>
<path d="M118.049 61.3604V68.9896H117.372V64.9492C117.372 64.1435 117.394 63.4685 117.439 62.7911H117.394C117.199 63.3354 116.895 64.0674 116.61 64.7971L115.675 67.1928H115L114.062 64.7971C113.78 64.0674 113.476 63.3354 113.279 62.7911H113.236C113.279 63.4685 113.3 64.1435 113.3 64.9492V68.9896H112.625V61.3604H113.338L114.696 64.6545C114.891 65.1441 115.171 65.9308 115.306 66.3538H115.349C115.492 65.9308 115.762 65.1441 115.959 64.6545L117.33 61.3604H118.049Z" fill="#2EB6EA"/>
<path d="M125.805 61.2656V68.8949H125.13V61.8978H123.171C123.071 64.3054 122.974 66.4849 122.844 67.4237C122.713 68.3625 122.245 68.9923 121.385 68.9923V68.3482C121.887 68.3482 122.124 67.9252 122.19 67.3239C122.288 66.5086 122.428 64.3601 122.528 61.2656H125.805Z" fill="#2EB6EA"/>
<path d="M130.97 61.2656L129.053 67.5401C128.792 68.3886 128.324 68.9994 127.391 68.9994H127.13V68.3482H127.391C127.98 68.3482 128.263 67.9133 128.436 67.3238L128.688 66.5181L126.738 61.2656H127.45L128.975 65.5437L130.272 61.2656H130.97Z" fill="#2EB6EA"/>
<path d="M135.546 61.3604V68.9896H134.881V65.9854C134.528 66.1427 134.146 66.2276 133.76 66.235C132.39 66.235 131.497 65.4174 131.497 63.9343V61.3604H132.171V63.932C132.171 65.0561 132.791 65.5956 133.76 65.5956C134.147 65.5977 134.531 65.5124 134.881 65.3461V61.3604H135.546Z" fill="#2EB6EA"/>
<path d="M137.227 61.3628H137.901V68.3598H140.35V61.3628H141.026V68.3598H143.475V61.3628H144.151V68.992H137.227V61.3628Z" fill="#2EB6EA"/>
<path d="M149.501 68.3717V68.992H145.833V61.3628H149.38V61.9855H146.507V64.8066H149.198V65.4293H146.507V68.3717H149.501Z" fill="#2EB6EA"/>
<path d="M154.493 65.2749L153.947 66.0164V68.992H153.272V61.3628H153.947V65.0039L154.569 64.1103L156.519 61.3628H157.357L154.928 64.6878L157.661 68.992H156.856L154.493 65.2749Z" fill="#2EB6EA"/>
<path d="M162.629 66.91C162.629 68.2718 161.812 68.992 160.463 68.992H158.501V61.3604H160.29C161.565 61.3604 162.315 62.0734 162.315 63.3449C162.315 64.2956 161.923 64.8707 161.325 65.0347C162.13 65.2177 162.631 65.8832 162.631 66.9076L162.629 66.91ZM159.181 61.9926V64.7614H160.311C161.194 64.7614 161.629 64.2861 161.629 63.3354C161.629 62.3847 161.194 61.983 160.29 61.983L159.181 61.9926ZM161.952 66.91C161.952 65.9189 161.311 65.396 160.351 65.396H159.188V68.3598H160.472C161.463 68.3598 161.952 67.9129 161.952 66.91Z" fill="#2EB6EA"/>
<path d="M166.618 67.2047H164.201L163.754 68.992H163.042L165.039 61.3604H165.78L167.782 68.9896H167.069L166.618 67.2047ZM166.464 66.5891L165.678 63.4281C165.559 62.9527 165.44 62.4156 165.417 62.2397H165.395C165.362 62.4251 165.253 62.9694 165.134 63.4281L164.35 66.5891H166.464Z" fill="#2EB6EA"/>
<path d="M172.749 63.7062C172.749 65.2748 171.978 66.1043 170.572 66.1043H169.418V68.992H168.743V61.3604H170.572C171.978 61.3604 172.749 62.2112 172.749 63.7038V63.7062ZM172.075 63.7038C172.075 62.5701 171.6 62.0044 170.572 62.0044H169.418V65.4578H170.572C171.595 65.4578 172.075 64.9135 172.075 63.7038Z" fill="#2EB6EA"/>
<path d="M177.249 61.995H175.573V68.992H174.899V61.995H173.222V61.3628H177.249V61.995Z" fill="#2EB6EA"/>
<path d="M178.287 61.3604H178.962V66.1898C178.962 66.5701 178.962 67.2688 178.928 67.6491H178.962C179.061 67.3877 179.289 66.841 179.496 66.4061L181.716 61.3604H182.478V68.9896H181.804V63.9747V62.7008L181.78 62.6889C181.716 62.8624 181.488 63.4019 181.379 63.6705L179.004 68.9991H178.263L178.287 61.3604Z" fill="#2EB6EA"/>
<path d="M188.166 63.7062C188.166 65.2748 187.392 66.1043 185.988 66.1043H184.834V68.992H184.16V61.3604H185.988C187.392 61.3604 188.166 62.2112 188.166 63.7038V63.7062ZM187.491 63.7038C187.491 62.5701 187.016 62.0044 185.988 62.0044H184.834V65.4578H185.988C187.012 65.4578 187.491 64.9135 187.491 63.7038Z" fill="#2EB6EA"/>
<path d="M189.192 61.3604H189.866V64.5546H190.956C192.317 64.5546 193.2 65.3722 193.2 66.7436C193.2 68.115 192.317 68.9896 190.956 68.9896H189.192V61.3604ZM190.956 68.3479C191.906 68.3479 192.514 67.7917 192.514 66.7436C192.514 65.6955 191.904 65.1964 190.956 65.1964H189.866V68.3479H190.956ZM194.281 61.3604H194.96V68.9896H194.285L194.281 61.3604Z" fill="#2EB6EA"/>
<path d="M43.6557 56.3623H3.79468V60.8163H43.6557V56.3623Z" fill="#32B7EB"/>
<path d="M78.5039 56.2888L74.9087 47.6471L71.3135 56.2888H66.3101L72.4628 42.8628L66.6829 30.3257H71.6483L74.9087 38.1878L78.1691 30.3257H83.1345L77.3546 42.8628L83.505 56.2888H78.5039Z" fill="#001F44"/>
<path d="M95.6988 51.5782H89.6197L88.5749 56.2888H83.8256L90.1991 30.3257H95.0909L101.465 56.2888H96.7152L95.6988 51.5782ZM94.7727 47.2383L93.735 42.416C93.3646 40.6358 92.9561 37.7814 92.6973 36.0369H92.5857C92.3625 37.7814 91.9564 40.6358 91.5859 42.416L90.5482 47.2383H94.7727Z" fill="#001F44"/>
<path d="M118.41 30.3257L112.257 50.3542C110.664 55.4736 108.738 56.6953 104.402 56.6953H103.438V52.6168H104.549C106.551 52.6168 107.366 51.8753 108.218 48.9828L101.733 30.3257H106.551L110.258 41.9359L113.63 30.3257H118.41Z" fill="#001F44"/>
<path d="M119.519 48.5004V38.1142C119.519 32.7357 122.447 29.8076 127.303 29.8076C132.266 29.8076 135.085 32.7357 135.306 38.0405H130.749C130.599 35.3691 129.488 34.2212 127.265 34.2212C125.365 34.2212 124.226 35.4452 124.226 38.1142V48.5004C124.226 51.0958 125.375 52.3198 127.313 52.3198C129.571 52.3198 130.685 51.1695 130.875 48.5741H135.432C135.246 53.8409 132.318 56.7333 127.317 56.7333C122.499 56.7333 119.533 53.8409 119.533 48.5004" fill="#001F44"/>
<path d="M154.092 48.6858C154.092 53.3203 151.016 56.2912 146.533 56.2912H138.713V30.3257H146.312C150.39 30.3257 153.168 33.1777 153.168 37.558C153.168 39.7826 152.28 41.8361 150.793 42.9745C152.866 44.0108 154.089 46.1641 154.089 48.6786L154.092 48.6858ZM143.27 34.6204V40.9995H145.752C147.604 40.9995 148.533 39.8515 148.533 37.7363C148.533 35.659 147.604 34.6204 145.605 34.6204H143.27ZM149.421 48.6786C149.421 46.416 148.086 45.2657 145.79 45.2657H143.273V51.9799H145.828C148.203 51.9799 149.423 50.8676 149.423 48.6786" fill="#001F44"/>
<path d="M157.426 30.3257H161.874V38.82C161.874 40.971 161.65 44.902 161.318 47.7208L161.427 47.7945C161.985 46.3495 162.614 44.5693 163.327 43.0102L168.838 30.3257H173.398V56.2888H168.95V48.208C168.95 45.76 169.135 41.5319 169.425 38.7868L169.313 38.6751C168.646 40.4552 167.943 42.5325 167.176 44.3126L161.952 56.2936H157.44L157.426 30.3257Z" fill="#001F44"/>
<path d="M184.364 45.7172L182.77 48.2033V56.2888H178.287V30.3257H182.77V40.971L184.29 37.9288L188.626 30.3257H193.889L186.921 41.6388L195 56.2888H189.811L184.364 45.7172Z" fill="#001F44"/>
<path d="M92.5809 24.0061C92.8688 24.0061 93.1502 24.0915 93.3896 24.2516C93.629 24.4117 93.8156 24.6392 93.9257 24.9055C94.0359 25.1717 94.0647 25.4646 94.0086 25.7472C93.9524 26.0298 93.8138 26.2894 93.6102 26.4932C93.4066 26.6969 93.1472 26.8357 92.8649 26.8919C92.5825 26.9481 92.2898 26.9193 92.0238 26.809C91.7578 26.6987 91.5305 26.512 91.3705 26.2724C91.2106 26.0328 91.1252 25.7511 91.1252 25.463C91.1252 25.0766 91.2786 24.706 91.5516 24.4328C91.8246 24.1596 92.1948 24.0061 92.5809 24.0061ZM92.5809 21.6104C91.82 21.6104 91.0761 21.8361 90.4433 22.259C89.8105 22.6819 89.3171 23.283 89.0255 23.9865C88.7339 24.6899 88.6571 25.464 88.8048 26.2111C88.9526 26.9582 89.3183 27.6447 89.8557 28.1839C90.393 28.723 91.078 29.0907 91.8241 29.2404C92.5702 29.3902 93.3439 29.3152 94.0474 29.0251C94.7509 28.735 95.3528 28.2426 95.7769 27.6103C96.201 26.978 96.4283 26.2341 96.4302 25.4725C96.4296 24.4509 96.0238 23.4713 95.3021 22.749C94.5803 22.0266 93.6016 21.6205 92.5809 21.6199" fill="#001F44"/>
<path d="M23.7179 28.1529L3.08301 48.8057L6.22971 51.9551L26.8646 31.3023L23.7179 28.1529Z" fill="#001F44"/>
<path d="M23.7187 28.1543L20.572 31.3037L41.2069 51.9564L44.3537 48.807L23.7187 28.1543Z" fill="#001F44"/>
<path d="M25.9431 0.99707H21.493V33.5104H25.9431V0.99707Z" fill="#001F44"/>
<path d="M47.4528 48.3291H0V52.7831H47.4528V48.3291Z" fill="#001F44"/>
<path d="M58.0866 18.6226L51.5041 12.0344L58.0866 5.44614L62.5344 0.992188H56.2439H40.4714H34.1785H21.4955V5.44614H38.6287H44.9191H51.7938L48.3577 8.88524L45.2112 12.0344L48.3577 15.1835L51.7938 18.6226H44.9191H38.6287H21.4955V23.0766H34.1785H40.4714H56.2439H62.5344L58.0866 18.6226Z" fill="#001F44"/>
<path d="M39.3885 64.46H8.03821V68.9139H39.3885V64.46Z" fill="#001F44"/>
</g>
<defs>
<clipPath id="clip0_60_3192">
<rect width="195" height="68" fill="white" transform="translate(0 0.992188)"/>
</clipPath>
</defs>
</svg>
