<svg width="134" height="37" viewBox="0 0 134 37" fill="none" xmlns="http://www.w3.org/2000/svg">
<path d="M12.697 35.9697L8.95345 27.0062L5.20986 35.9697H0L6.40662 22.0438L0.388207 9.03986H5.55851L8.95345 17.1947L12.3484 9.03986H17.5187L11.5003 22.0438L17.9044 35.9697H12.697Z" fill="#32B7EB"/>
<path d="M30.6015 31.0837H24.2715L23.1836 35.9697H18.2383L24.8748 9.03986H29.9685L36.6051 35.9697H31.6598L30.6015 31.0837ZM29.6372 26.5822L28.5566 21.5803C28.1709 19.7339 27.7456 16.7732 27.4761 14.9637H27.3599C27.1274 16.7732 26.7046 19.7339 26.3189 21.5803L25.2383 26.5822H29.6372Z" fill="#32B7EB"/>
<path d="M54.2499 9.03986L47.8433 29.8141C46.1841 35.1241 44.1788 36.3912 39.6638 36.3912H38.6599V32.161H39.8171C41.9015 32.161 42.7496 31.3918 43.6373 28.3917L36.8845 9.03986H41.9015L45.7613 21.0824L49.2724 9.03986H54.2499Z" fill="#32B7EB"/>
<path d="M55.4045 27.8913V17.1184C55.4045 11.5396 58.4533 8.5025 63.5099 8.5025C68.6777 8.5025 71.6127 11.5396 71.8426 17.042H67.0976C66.9419 14.2711 65.7847 13.0804 63.4703 13.0804C61.4922 13.0804 60.3053 14.35 60.3053 17.1184V27.8913C60.3053 30.5833 61.5021 31.8529 63.5197 31.8529C65.8712 31.8529 67.0309 30.6597 67.2287 27.9677H71.9737C71.7808 33.4306 68.7321 36.4307 63.5247 36.4307C58.5077 36.4307 55.4194 33.4306 55.4194 27.8913" fill="#32B7EB"/>
<path d="M91.4037 28.0835C91.4037 32.8907 88.2016 35.9722 83.5333 35.9722H75.3909V9.03986H83.3033C87.5489 9.03986 90.4418 11.9981 90.4418 16.5415C90.4418 18.8489 89.5171 20.9788 87.9692 22.1596C90.1278 23.2345 91.4012 25.4679 91.4012 28.0761L91.4037 28.0835ZM80.1359 13.4945V20.1111H82.7198C84.6484 20.1111 85.6152 18.9204 85.6152 16.7263C85.6152 14.5718 84.6484 13.4945 82.5665 13.4945H80.1359ZM86.54 28.0761C86.54 25.7293 85.1504 24.5361 82.7593 24.5361H80.1383V31.5003H82.7989C85.2715 31.5003 86.5425 30.3466 86.5425 28.0761" fill="#32B7EB"/>
<path d="M94.8754 9.03986H99.5066V17.8505C99.5066 20.0815 99.2742 24.1589 98.928 27.0826L99.0418 27.1591C99.6228 25.6602 100.278 23.8138 101.02 22.1966L106.759 9.03986H111.506V35.9697H106.875V27.588C106.875 25.0489 107.068 20.6633 107.37 17.816L107.253 17.7001C106.559 19.5465 105.827 21.7011 105.028 23.5476L99.5882 35.9746H94.8902L94.8754 9.03986Z" fill="#32B7EB"/>
<path d="M122.925 25.0045L121.266 27.5831V35.9697H116.598V9.03986H121.266V20.0815L122.848 16.926L127.363 9.03986H132.843L125.588 20.7742L134 35.9697H128.597L122.925 25.0045Z" fill="#32B7EB"/>
<path d="M27.3548 2.48492C27.6546 2.48492 27.9477 2.57355 28.1969 2.7396C28.4462 2.90565 28.6405 3.14166 28.7552 3.41779C28.8699 3.69392 28.8999 3.99776 28.8414 4.2909C28.783 4.58404 28.6386 4.8533 28.4266 5.06464C28.2146 5.27598 27.9446 5.41991 27.6505 5.47821C27.3565 5.53652 27.0517 5.5066 26.7748 5.39222C26.4978 5.27784 26.2611 5.08415 26.0945 4.83564C25.928 4.58713 25.8391 4.29497 25.8391 3.99609C25.8391 3.5953 25.9988 3.21093 26.283 2.92753C26.5673 2.64413 26.9528 2.48492 27.3548 2.48492ZM27.3548 0C26.5625 2.40499e-06 25.788 0.234122 25.129 0.672783C24.4701 1.11144 23.9564 1.73497 23.6527 2.46458C23.3491 3.1942 23.2691 3.99717 23.423 4.77206C23.5768 5.54696 23.9576 6.25901 24.5172 6.81826C25.0767 7.37751 25.79 7.75888 26.5668 7.91418C27.3437 8.06948 28.1493 7.99175 28.8818 7.69081C29.6144 7.38987 30.2411 6.87921 30.6827 6.22336C31.1243 5.5675 31.361 4.79587 31.363 4.00595C31.3623 2.94632 30.9398 1.93028 30.1883 1.18101C29.4368 0.431739 28.4177 0.0105141 27.3548 0.00986102" fill="#32B7EB"/>
</svg>
