<svg width="22" height="21" viewBox="0 0 22 21" fill="none" xmlns="http://www.w3.org/2000/svg">
<path fill-rule="evenodd" clip-rule="evenodd" d="M3.65854 1.71341C2.44621 1.71341 1.46341 2.69621 1.46341 3.90854V12.4722C1.46341 13.6846 2.44621 14.6673 3.65854 14.6673H4.85085C5.25496 14.6673 5.58256 14.9949 5.58256 15.3991V17.9703L9.40112 14.8336C9.53202 14.7261 9.69617 14.6673 9.86556 14.6673H17.3713C18.5836 14.6673 19.5664 13.6846 19.5664 12.4722V3.90854C19.5664 2.69621 18.5836 1.71341 17.3713 1.71341H3.65854ZM0 3.90854C0 1.88799 1.63798 0.25 3.65854 0.25H17.3713C19.3918 0.25 21.0298 1.88798 21.0298 3.90854V12.4722C21.0298 14.4928 19.3918 16.1308 17.3713 16.1308H10.1276L5.31529 20.0837C5.09663 20.2633 4.79399 20.3007 4.53815 20.1798C4.28231 20.0589 4.11914 19.8013 4.11914 19.5183V16.1308H3.65854C1.63799 16.1308 0 14.4928 0 12.4722V3.90854Z" fill="#C4C4C4"/>
<path fill-rule="evenodd" clip-rule="evenodd" d="M3.65851 6.34758C3.65851 6.07817 3.87691 5.85977 4.14631 5.85977H16.8292C17.0986 5.85977 17.317 6.07817 17.317 6.34758C17.317 6.61698 17.0986 6.83538 16.8292 6.83538H4.14631C3.87691 6.83538 3.65851 6.61698 3.65851 6.34758Z" fill="#C4C4C4"/>
<path fill-rule="evenodd" clip-rule="evenodd" d="M3.65851 9.2744C3.65851 9.00499 3.87691 8.78659 4.14631 8.78659H9.99997C10.2694 8.78659 10.4878 9.00499 10.4878 9.2744C10.4878 9.5438 10.2694 9.7622 9.99997 9.7622H4.14631C3.87691 9.7622 3.65851 9.5438 3.65851 9.2744Z" fill="#C4C4C4"/>
</svg>
