<svg width="58" height="70" viewBox="0 0 58 70" fill="none" xmlns="http://www.w3.org/2000/svg">
<path fill-rule="evenodd" clip-rule="evenodd" d="M27.9573 0.31351C27.6493 0.482754 26.8315 1.13348 26.1399 1.75974C20.2551 7.08845 13.4186 9.72635 4.51254 10.1046C1.58669 10.229 1.16104 10.3578 0.512772 11.3156C0.182428 11.8036 0.175948 11.8675 0.068488 15.7171C-0.0863567 21.2558 0.0341979 30.1749 0.301227 32.9524C1.04913 40.7292 2.6756 46.7301 5.38559 51.7101C9.17584 58.6755 15.0698 64.0323 23.0044 67.7236C25.4398 68.8565 28.4516 70 29 70C29.2345 70 30.2467 69.6887 31.2495 69.3081C37.7827 66.8288 43.133 63.4148 47.225 59.1143C53.3954 52.6292 56.5688 44.7025 57.6988 32.9524C57.9658 30.1749 58.0864 21.2558 57.9315 15.7171C57.8241 11.8675 57.8176 11.8036 57.4872 11.3156C56.839 10.3578 56.4133 10.229 53.4875 10.1046C44.4734 9.7217 37.4209 6.95133 31.5073 1.47033C29.8656 -0.0513612 29.0846 -0.305773 27.9573 0.31351ZM30.2917 6.86548C33.5923 9.55109 37.5717 11.7143 41.6708 13.0511C44.539 13.9864 47.153 14.4966 50.8563 14.844C51.9998 14.9512 52.9718 15.076 53.0163 15.1211C53.1859 15.2929 53.1019 30.9257 52.9221 32.6789C52.2021 39.6976 51.0556 44.133 48.8051 48.6053C45.2141 55.7414 39.0637 60.9843 30.1812 64.4809L29 64.9458L27.8188 64.4809C19.8094 61.328 13.7174 56.4888 10.2134 50.4959C7.32188 45.5503 5.88792 40.5756 5.07792 32.6789C4.8981 30.9257 4.81413 15.2929 4.98369 15.1211C5.02824 15.076 6.00024 14.9512 7.14369 14.844C10.847 14.4966 13.461 13.9864 16.3292 13.0511C20.4312 11.7134 24.3578 9.57775 27.7085 6.86179C28.3718 6.32425 28.953 5.88433 29.0001 5.88433C29.0473 5.88433 29.6284 6.32589 30.2917 6.86548ZM38.045 25.9944C37.8594 26.0678 34.9903 28.8767 31.6695 32.2363L25.6315 38.3446L22.827 35.5252C20.156 32.8401 19.9924 32.7014 19.3914 32.61C17.5167 32.3256 16.0634 34.1254 16.7214 35.9169C16.9093 36.4284 24.0859 43.7261 24.6419 43.971C25.3817 44.2969 26.2989 44.217 26.9823 43.7675C27.9421 43.1361 40.9658 29.8317 41.2118 29.2315C41.8985 27.5552 40.7834 25.8287 39.0291 25.8522C38.6734 25.857 38.2306 25.921 38.045 25.9944Z" fill="#32B7EB"/>
</svg>
