<svg width="48" height="68" viewBox="0 0 48 68" fill="none" xmlns="http://www.w3.org/2000/svg">
<path fill-rule="evenodd" clip-rule="evenodd" d="M20.616 0.23052C17.3444 0.787332 14.268 2.42373 11.8757 4.87953C10.0633 6.74023 9.0001 8.44744 8.14426 10.8709C7.32761 13.1834 7.18481 14.4938 7.18406 19.6785L7.18346 24.2418L6.14444 24.4075C3.2068 24.8757 0.725764 27.2386 0.13193 30.1339C0.0149652 30.704 -0.0210705 34.7635 0.0113614 43.6989C0.0576069 56.3939 0.059258 56.4557 0.395889 57.6662C1.1663 60.4368 2.85606 63.1037 4.96593 64.8793C6.29129 65.9948 8.60912 67.1937 10.3366 67.6575C11.6116 67.9997 11.6244 68 24 68C36.3193 68 36.3942 67.9982 37.6634 67.6622C39.2847 67.2329 41.6605 66.025 42.9162 64.9915C45.0471 63.2379 46.8408 60.4365 47.6062 57.6662C47.94 56.4583 47.9425 56.367 47.9886 43.6989C48.0211 34.7635 47.985 30.704 47.8681 30.1339C47.2742 27.2386 44.7932 24.8757 41.8556 24.4075L40.8165 24.2418L40.8159 19.6785C40.8155 16.362 40.7541 14.7332 40.5913 13.7174C39.6253 7.68897 35.3762 2.70183 29.5555 0.765145C27.3019 0.0151816 23.2907 -0.224625 20.616 0.23052ZM27.8288 5.31097C29.8191 5.94817 31.1601 6.77306 32.6395 8.2704C34.1105 9.75923 34.9124 11.0894 35.5749 13.1395C35.8991 14.1429 35.9219 14.4899 35.9774 19.2562L36.0364 24.3091H24H11.9636L12.0226 19.2562C12.0781 14.4899 12.101 14.1429 12.4251 13.1395C13.6377 9.38722 16.3724 6.55787 19.9104 5.39501C21.2537 4.95369 22.0406 4.87209 24.4504 4.92406C26.3393 4.96494 26.9758 5.03788 27.8288 5.31097ZM42.1101 29.5615C42.3381 29.7338 42.6639 30.0636 42.8342 30.2944C43.1411 30.7105 43.1438 30.8257 43.1438 43.2784V55.8425L42.7755 56.9823C41.8114 59.9667 39.2079 62.3451 36.1989 62.9905C34.7299 63.3056 13.296 63.3112 11.831 62.9967C8.85551 62.3583 6.34054 60.1113 5.26593 57.1308L4.85618 55.9945L4.81128 43.7611C4.78651 37.0327 4.80618 31.3074 4.85482 31.0381C4.96503 30.4283 5.59625 29.6523 6.2 29.3849C6.57476 29.2189 9.84153 29.1881 24.1767 29.2151C41.611 29.2479 41.6974 29.2496 42.1101 29.5615ZM22.2518 36.783C21.1964 37.1938 20.1992 38.1233 19.6917 39.1695C19.3366 39.9014 19.2703 40.2289 19.2705 41.2536C19.2707 42.96 19.8544 44.1647 21.2008 45.2365L21.5844 45.542L21.6286 49.9595C21.6705 54.1469 21.6888 54.399 21.9823 54.7965C22.5709 55.5938 23.0506 55.8425 24 55.8425C24.9494 55.8425 25.4291 55.5938 26.0177 54.7965C26.3114 54.3987 26.3295 54.1476 26.3713 49.905C26.3955 47.4452 26.4719 45.4327 26.5412 45.4327C26.8342 45.4327 27.9804 44.077 28.34 43.3052C28.8624 42.1839 28.8888 40.3989 28.399 39.3183C27.3572 37.0195 24.5833 35.8754 22.2518 36.783Z" fill="#32B7EB"/>
</svg>
